# xmcd
#
# Track frame offsets:
#	150
#	24237
#	40787
#	54775
#	69212
#	85887
#	106387
#	118787
#	136187
#	150537
#	165700
#	178725
#	192212
#	212562
#	226287
#	240150
#
# Disc length: 3399
#
# Revision: 5
# Processed by: cddbd v1.5.1PL0 Copyright (c) Steve Scherf et al.
# Submitted via: CDex 1.51
# Normalized: r4:TSWAP
#
DISCID=be0d4510
DTITLE=American Style - Best Of New Country Music CD 3
DYEAR=1997
DGENRE=Country
TTITLE0=Johnny Cash - Highway Patrolman
TTITLE1=Ricky Van Shelton - Backroads
TTITLE2=Hummingbird - Ricky Skaggs
TTITLE3=The O'Kanes - The Better To Love You
TTITLE4=Ty Herndon - What Mattered Most
TTITLE5=Rosanne Cash - I Don't Have To Crawl
TTITLE6=Wade Hayes - Don't Stop
TTITLE7=Don King - Over My Head
TTITLE8=Mike Reid - Walk On Faith
TTITLE9=Doug Stone - I'd Better Of ( In A Pine Box )
TTITLE10=Sweethearts of the Rodeo: - Devil And Your Deep Blue Eyes
TTITLE11=Vern Gosdin - I Knew My Day Would Come
TTITLE12=Chet Atkins and Steve Wariner - Read My Licks
TTITLE13=Larry Gatlin and Gatlin Brothers - Love Of A Lifetime
TTITLE14=Stephanie Bentley - Who's That Girl
TTITLE15=Tom Wopat - Too Many Honky Tonks (On My Way Home )
EXTD=YEAR: 1997
EXTT0=
EXTT1=
EXTT2=
EXTT3=
EXTT4=
EXTT5=
EXTT6=
EXTT7=
EXTT8=
EXTT9=
EXTT10=
EXTT11=
EXTT12=
EXTT13=
EXTT14=
EXTT15=
PLAYORDER=
